<?xml version="1.0" standalone="no"?>
<!DOCTYPE svg PUBLIC "-//W3C//DTD SVG 20010904//EN"
 "http://www.w3.org/TR/2001/REC-SVG-20010904/DTD/svg10.dtd">
<svg version="1.0" xmlns="http://www.w3.org/2000/svg"
 width="433.000000pt" height="577.000000pt" viewBox="0 0 433.000000 577.000000"
 preserveAspectRatio="xMidYMid meet">

<g transform="translate(0.000000,577.000000) scale(0.100000,-0.100000)"
fill="#000000" stroke="none">
<path d="M1462 4483 c-29 -3 -45 -10 -49 -21 -15 -38 -68 -56 -80 -27 -3 9
-20 22 -37 29 -85 34 -237 -88 -293 -237 -13 -32 -40 -78 -62 -103 -51 -58
-69 -114 -58 -178 4 -27 16 -61 26 -75 10 -14 22 -37 26 -51 9 -31 35 -61 46
-54 5 3 9 22 9 42 0 20 8 56 17 79 19 45 47 58 103 47 34 -7 109 34 164 91 19
19 47 40 62 45 32 12 271 2 280 -12 3 -5 28 -6 55 -2 43 6 53 4 74 -16 18 -17
25 -34 25 -60 0 -20 10 -56 21 -81 24 -48 98 -134 141 -161 39 -24 75 -94 83
-160 6 -51 11 -61 47 -93 41 -34 58 -37 58 -9 0 17 39 19 44 2 3 -7 7 -25 10
-40 4 -16 13 -28 21 -28 8 0 15 -7 15 -15 0 -8 -7 -15 -16 -15 -14 0 -16 -8
-10 -47 3 -26 10 -51 14 -55 16 -16 48 22 62 71 11 40 17 50 30 46 32 -10 50
5 50 43 0 48 18 30 22 -23 l4 -40 13 30 c10 24 10 42 1 85 -26 127 -45 151
-101 131 -23 -8 -28 -7 -23 2 18 32 40 47 67 47 17 0 35 -8 43 -17 11 -16 14
-14 29 20 19 45 16 238 -3 245 -7 2 -12 8 -12 14 0 5 -9 21 -20 35 -11 14 -20
34 -20 44 0 20 -34 27 -45 9 -10 -17 -27 -11 -21 8 3 9 -1 29 -8 44 -13 25
-13 28 5 33 39 13 59 101 21 92 -10 -2 -15 -10 -13 -18 2 -8 6 -25 9 -39 5
-24 4 -24 -14 -8 -12 11 -28 15 -42 11 -31 -8 -49 11 -44 47 3 18 0 30 -7 30
-6 0 -11 -16 -11 -35 0 -19 -4 -35 -10 -35 -5 0 -10 13 -10 29 0 15 -9 40 -21
54 -16 21 -18 31 -9 47 15 28 25 25 40 -10 15 -37 22 -37 38 -3 19 42 16 54
-14 47 -19 -5 -32 0 -52 19 -15 13 -45 30 -67 37 -22 7 -49 19 -60 26 -12 9
-47 14 -93 14 -71 0 -73 -1 -66 -22 6 -19 4 -21 -7 -12 -8 7 -28 15 -45 18
-18 4 -53 20 -78 37 -71 45 -155 62 -254 52z m612 -189 c24 -9 19 -28 -14 -52
-56 -42 -84 -24 -37 23 38 40 32 36 51 29z m-114 -48 c0 -31 -14 -40 -41 -26
-20 11 -20 12 -3 31 24 26 44 24 44 -5z m358 -708 c7 -7 12 -22 12 -34 0 -21
-1 -21 -35 -6 -32 15 -34 17 -18 34 19 21 25 22 41 6z"/>
<path d="M2325 4100 c-3 -6 1 -13 10 -16 19 -8 30 0 20 15 -8 14 -22 14 -30 1z"/>
<path d="M2360 4030 c0 -11 5 -20 10 -20 6 0 10 9 10 20 0 11 -4 20 -10 20 -5
0 -10 -9 -10 -20z"/>
<path d="M1451 3748 c-30 -5 -68 -15 -84 -23 -17 -8 -36 -15 -44 -15 -7 0 -32
-18 -55 -40 -45 -42 -46 -43 -120 -40 -57 2 -103 -19 -149 -66 -41 -42 -45
-98 -10 -133 12 -12 21 -34 21 -50 0 -32 22 -61 46 -61 8 0 13 -3 13 -7 -5
-30 2 -35 42 -30 44 6 93 44 106 81 3 12 11 50 17 86 9 55 14 65 33 68 34 5
63 -15 63 -44 0 -14 5 -34 10 -45 11 -20 40 -27 40 -9 0 13 71 13 126 -1 35
-9 59 -9 102 1 71 16 142 46 157 67 7 10 33 19 61 22 42 5 50 10 52 29 5 34
-67 151 -98 159 -14 3 -50 17 -80 30 -61 27 -155 35 -249 21z"/>
<path d="M1908 3319 c-2 -19 -8 -23 -28 -21 -19 2 -22 0 -12 -10 14 -14 16
-45 3 -50 -5 -1 -11 -16 -13 -32 -2 -20 3 -32 17 -40 11 -6 23 -15 26 -20 10
-13 29 2 29 23 0 9 -7 26 -15 37 -20 27 -19 33 10 44 30 11 32 36 6 69 l-19
25 -4 -25z"/>
<path d="M1459 3316 c7 -8 11 -32 9 -53 l-3 -38 -81 -16 c-77 -16 -134 -41
-134 -60 0 -5 -9 -9 -19 -9 -11 0 -23 -4 -26 -10 -3 -6 5 -10 19 -10 13 0 26
-3 28 -7 2 -5 16 -15 32 -23 16 -8 34 -23 40 -32 12 -20 -3 -35 -72 -69 -40
-20 -44 -20 -67 -5 -20 13 -23 21 -18 49 3 17 10 40 14 49 13 24 11 51 -5 73
-12 17 -16 13 -45 -47 -41 -87 -42 -136 -1 -178 17 -17 30 -35 30 -40 0 -18
17 -10 83 40 36 28 76 50 88 50 12 0 39 5 59 11 25 8 55 8 91 2 33 -5 69 -5
92 0 64 15 75 -17 44 -126 -22 -76 -44 -117 -76 -144 -31 -26 -47 -28 -67 -8
-23 23 -74 20 -74 -4 0 -11 -18 -34 -40 -51 -22 -17 -40 -38 -40 -45 0 -7 16
-26 36 -42 35 -28 36 -30 25 -68 -6 -22 -11 -72 -11 -111 0 -57 4 -77 20 -97
12 -14 32 -52 46 -84 14 -32 34 -77 45 -100 10 -23 19 -51 19 -62 0 -11 9 -23
22 -27 18 -5 29 1 55 32 18 22 33 43 33 48 0 5 11 24 26 43 14 18 22 33 18 33
-3 0 -1 6 5 14 9 11 19 12 45 4 19 -6 43 -7 53 -3 10 4 35 7 56 6 97 -6 221
56 294 146 21 27 41 50 44 53 8 7 92 119 104 139 6 9 20 31 33 48 16 23 22 45
22 85 0 47 -4 58 -29 82 -33 32 -46 22 -30 -24 13 -36 6 -123 -10 -128 -6 -2
-11 -11 -11 -19 0 -9 -6 -13 -15 -9 -8 3 -15 1 -15 -5 0 -6 -10 -9 -22 -7 -20
3 -21 7 -18 78 6 123 4 143 -29 208 -17 34 -31 73 -31 87 0 14 -12 48 -26 76
-27 51 -64 79 -105 79 -24 0 -109 51 -145 87 -19 19 -34 23 -81 23 -64 0 -126
24 -175 65 -29 25 -100 65 -114 65 -3 0 -1 -6 5 -14z m104 -123 c26 -30 29
-65 7 -92 -17 -19 -32 -25 -89 -29 -95 -6 -99 6 -20 79 35 33 69 59 75 59 6 0
18 -8 27 -17z m-193 -133 c0 -5 -5 -10 -11 -10 -5 0 -7 5 -4 10 3 6 8 10 11
10 2 0 4 -4 4 -10z m810 -519 c0 -23 -14 -42 -45 -61 -24 -15 -32 -26 -28 -40
4 -16 2 -19 -11 -14 -9 3 -16 1 -16 -5 0 -7 -17 -29 -37 -50 -66 -67 -133 -87
-133 -39 0 33 18 56 50 63 29 6 52 25 31 25 -6 0 -11 5 -11 10 0 6 9 10 21 10
11 0 26 6 34 13 7 6 28 23 46 37 18 14 42 33 53 42 23 19 46 23 46 9z m-658
-86 c63 -58 142 -105 179 -105 27 0 89 -46 89 -65 0 -38 -97 -70 -129 -41 -9
7 -35 23 -57 34 -45 23 -92 76 -130 147 -23 43 -32 85 -18 85 4 0 33 -25 66
-55z"/>
<path d="M2152 3187 c-24 -49 -29 -107 -9 -107 6 0 24 21 39 45 39 65 58 60
58 -14 0 -64 16 -90 25 -44 4 15 10 36 16 45 5 10 9 26 9 36 0 11 9 27 20 37
32 29 24 35 -42 32 -35 -1 -70 2 -79 6 -11 6 -20 -3 -37 -36z"/>
<path d="M1370 2937 c-63 -21 -65 -23 -65 -56 0 -39 15 -49 38 -26 9 8 25 15
36 15 29 0 61 35 61 65 0 14 -1 25 -2 24 -2 0 -32 -10 -68 -22z"/>
<path d="M1170 2752 c0 -5 7 -17 15 -28 14 -19 14 -19 15 2 0 12 -7 24 -15 28
-8 3 -15 2 -15 -2z"/>
<path d="M2048 2213 c6 -2 18 -2 25 0 6 3 1 5 -13 5 -14 0 -19 -2 -12 -5z"/>
<path d="M2061 2159 c-13 -16 -36 -33 -52 -36 -16 -3 -29 -9 -29 -13 0 -4 -12
-12 -26 -18 -14 -7 -22 -17 -19 -22 11 -17 43 -11 68 13 14 12 48 31 76 41 51
18 61 32 39 54 -18 18 -31 14 -57 -19z"/>
<path d="M1260 2073 c0 -54 1 -56 19 -39 26 24 32 62 11 81 -26 24 -30 19 -30
-42z"/>
<path d="M2098 2076 c-53 -60 -61 -82 -25 -69 12 4 59 6 104 4 45 -1 92 0 103
4 l21 7 -22 19 c-12 10 -34 24 -50 31 -15 7 -32 23 -38 35 -16 36 -42 27 -93
-31z"/>
<path d="M1375 1980 c-7 -32 1 -54 16 -45 12 8 12 62 0 69 -5 4 -12 -7 -16
-24z"/>
<path d="M1422 1993 c2 -10 13 -22 26 -28 12 -5 22 -13 22 -17 0 -5 5 -8 10
-8 18 0 11 26 -13 48 -28 26 -50 29 -45 5z"/>
<path d="M1856 1846 c-113 -115 -122 -139 -34 -95 58 29 93 63 134 130 71 117
37 105 -100 -35z"/>
<path d="M2922 1400 c0 -14 2 -19 5 -12 2 6 2 18 0 25 -3 6 -5 1 -5 -13z"/>
<path d="M2940 1331 c0 -6 5 -13 10 -16 6 -3 10 1 10 9 0 9 -4 16 -10 16 -5 0
-10 -4 -10 -9z"/>
<path d="M3060 1303 c0 -11 -7 -26 -15 -33 -8 -7 -15 -19 -15 -26 0 -8 -11
-20 -25 -26 -22 -10 -25 -18 -25 -61 0 -38 -5 -56 -21 -73 l-21 -22 34 -34
c19 -18 33 -39 30 -46 -6 -19 7 -62 18 -62 6 0 10 22 10 49 0 27 9 91 19 142
21 102 29 194 18 205 -4 4 -7 -2 -7 -13z"/>
<path d="M2971 1250 c0 -29 1 -32 10 -17 7 11 7 23 0 35 -9 14 -10 11 -10 -18z"/>
<path d="M3015 770 c-15 -47 -7 -146 14 -188 11 -23 21 -56 21 -73 0 -18 10
-53 22 -78 15 -30 25 -75 30 -131 4 -47 12 -107 19 -135 6 -27 12 -74 13 -103
1 -47 3 -52 24 -52 14 0 26 8 31 22 11 32 22 230 12 223 -5 -2 -14 10 -21 28
-22 54 -37 91 -50 122 -8 17 -16 88 -20 160 -6 126 -7 132 -39 178 -36 52 -46
57 -56 27z"/>
<path d="M916 552 c-5 -9 8 -107 19 -143 4 -10 11 -19 16 -19 12 0 12 77 -1
85 -5 3 -10 21 -10 40 0 33 -13 54 -24 37z"/>
</g>
</svg>
